<?xml version="1.0" encoding="utf-8"?>
<!DOCTYPE svg PUBLIC "-//W3C//DTD SVG 1.1//EN" "http://www.w3.org/Graphics/SVG/1.1/DTD/svg11.dtd">
<svg version="1.1" preserveAspectRatio="xMinYMin meet" xmlns="http://www.w3.org/2000/svg" xmlns:xlink="http://www.w3.org/1999/xlink" x="0px" y="0px" width="24px" height="24px" viewBox="0 0 24 24">
<path d="M6 0h12v2h4v4h2v12h-2v4h-4v2h-12v-2h-4v-4h-2v-12h2v-4h4v-2z" fill="rgb(73,18,16)"/>
<path d="M7 1h1v1h-1v-1z" fill="rgb(166,20,0)"/>
<path d="M8 1h2v1h-2v-1z" fill="rgb(149,12,0)"/>
<path d="M10 1h2v1h-2v-1z" fill="rgb(154,15,0)"/>
<path d="M12 1h2v1h-2v-1z" fill="rgb(132,9,0)"/>
<path d="M14 1h2v1h-2v-1z" fill="rgb(121,4,0)"/>
<path d="M16 1h1v1h-1v-1z" fill="rgb(154,15,0)"/>
<path d="M7 2h1v2h-2v-1h1v-1z" fill="rgb(149,12,0)"/>
<path d="M8 2h2v2h-2v-2z" fill="rgb(108,2,0)"/>
<path d="M10 2h2v2h-2v-2z" fill="rgb(121,4,0)"/>
<path d="M12 2h2v3h-1v1h-2v-1h-1v-1h2v-2z" fill="rgb(117,3,0)"/>
<path d="M14 2h1v1h-1v-1z" fill="rgb(145,12,0)"/>
<path d="M15 2h1v2h-2v-1h1v-1z" fill="rgb(136,8,0)"/>
<path d="M16 2h1v1h1v1h-2v-2z" fill="rgb(132,9,0)"/>
<path d="M3 3h1v1h-1v-1z" fill="rgb(169,20,0)"/>
<path d="M4 3h2v1h-2v-1z" fill="rgb(207,36,7)"/>
<path d="M18 3h2v1h-2v-1z" fill="rgb(152,13,0)"/>
<path d="M20 3h1v1h-1v-1z" fill="rgb(178,21,0)"/>
<path d="M3 4h1v2h-1v-2z" fill="rgb(149,12,0)"/>
<path d="M4 4h2v2h-2v-2z" fill="rgb(174,20,0)"/>
<path d="M6 4h2v1h-1v1h-1v-2z" fill="rgb(133,6,0)"/>
<path d="M8 4h2v1h-2v-1z" fill="rgb(61,61,36)"/>
<path d="M14 4h2v1h-2v-1z" fill="rgb(61,61,36)"/>
<path d="M16 4h2v2h-1v-1h-1v-1z" fill="rgb(117,3,0)"/>
<path d="M18 4h2v2h-2v-2z" fill="rgb(131,6,0)"/>
<path d="M20 4h1v2h-1v-2z" fill="rgb(168,19,0)"/>
<path d="M7 5h1v1h-1v-1z" fill="rgb(61,61,36)"/>
<path d="M8 5h2v1h-2v-1z" fill="rgb(234,238,87)"/>
<path d="M10 5h1v1h-1v-1z" fill="rgb(61,61,36)"/>
<path d="M13 5h1v1h-1v-1z" fill="rgb(61,61,36)"/>
<path d="M14 5h2v1h1v1h1v1h1v5h-1v2h-2v1h-4v-1h-2v-1h1v-1h1v1h1v1h2v-1h2v-2h1
	v-3h-1v-1h-1v-1h-1v-1h-1v-1z" fill="rgb(234,238,87)"/>
<path d="M16 5h1v1h-1v-1z" fill="rgb(61,61,36)"/>
<path d="M3 6h1v2h-2v-1h1v-1z" fill="rgb(125,4,0)"/>
<path d="M4 6h2v1h-1v1h-1v-2z" fill="rgb(145,12,0)"/>
<path d="M6 6h1v1h-1v-1z" fill="rgb(61,61,36)"/>
<path d="M7 6h1v1h-1v-1z" fill="rgb(234,238,87)"/>
<path d="M8 6h2v1h-2v-1z" fill="rgb(221,224,83)"/>
<path d="M10 6h1v1h-1v-1z" fill="rgb(234,238,87)"/>
<path d="M11 6h1v1h-1v-1z" fill="rgb(61,61,36)"/>
<path d="M12 6h2v1h1v1h1v1h1v3h-1v-2h-2v-2h-1v-1h-1v-1z" fill="rgb(113,2,0)"/>
<path d="M14 6h1v1h-1v-1z" fill="rgb(61,61,36)"/>
<path d="M17 6h1v1h-1v-1z" fill="rgb(61,61,36)"/>
<path d="M18 6h2v2h-1v-1h-1v-1z" fill="rgb(154,15,0)"/>
<path d="M20 6h1v1h1v3h-2v-4z" fill="rgb(185,18,0)"/>
<path d="M1 7h1v3h-1v-3z" fill="rgb(157,15,0)"/>
<path d="M5 7h1v1h-1v-1z" fill="rgb(61,61,36)"/>
<path d="M6 7h1v1h-1v-1z" fill="rgb(234,238,87)"/>
<path d="M7 7h1v1h-1v-1z" fill="rgb(221,224,83)"/>
<path d="M8 7h2v2h-1v1h-1v1h-1v1h-2v-2h1v-1h1v-1h1v-1z" fill="rgb(213,217,82)"/>
<path d="M10 7h1v2h-1v-2z" fill="rgb(221,224,83)"/>
<path d="M11 7h1v2h-1v-2z" fill="rgb(234,238,87)"/>
<path d="M12 7h1v2h-1v-2z" fill="rgb(61,61,36)"/>
<path d="M15 7h1v1h-1v-1z" fill="rgb(61,61,36)"/>
<path d="M18 7h1v1h-1v-1z" fill="rgb(61,61,36)"/>
<path d="M22 7h1v5h-1v-5z" fill="rgb(169,20,0)"/>
<path d="M2 8h2v1h-1v1h-1v-2z" fill="rgb(117,3,0)"/>
<path d="M4 8h1v1h-1v-1z" fill="rgb(61,61,36)"/>
<path d="M5 8h1v1h-1v-1z" fill="rgb(234,238,87)"/>
<path d="M6 8h1v1h-1v-1z" fill="rgb(221,224,83)"/>
<path d="M13 8h1v2h-2v-1h1v-1z" fill="rgb(108,2,0)"/>
<path d="M16 8h1v1h-1v-1z" fill="rgb(61,61,36)"/>
<path d="M19 8h1v5h-1v-5z" fill="rgb(61,61,36)"/>
<path d="M3 9h1v1h-1v-1z" fill="rgb(61,61,36)"/>
<path d="M4 9h1v1h-1v-1z" fill="rgb(234,238,87)"/>
<path d="M5 9h1v1h-1v-1z" fill="rgb(221,224,83)"/>
<path d="M9 9h1v1h-1v-1z" fill="rgb(221,224,83)"/>
<path d="M10 9h1v1h-1v-1z" fill="rgb(234,238,87)"/>
<path d="M11 9h1v1h-1v-1z" fill="rgb(61,61,36)"/>
<path d="M17 9h1v3h-1v-3z" fill="rgb(61,61,36)"/>
<path d="M1 10h1v4h-1v-4z" fill="rgb(161,16,0)"/>
<path d="M2 10h1v2h-1v-2z" fill="rgb(61,61,36)"/>
<path d="M3 10h1v2h-1v-2z" fill="rgb(234,238,87)"/>
<path d="M4 10h1v2h-1v-2z" fill="rgb(221,224,83)"/>
<path d="M8 10h1v1h-1v-1z" fill="rgb(221,224,83)"/>
<path d="M9 10h1v2h-2v-1h1v-1z" fill="rgb(234,238,87)"/>
<path d="M10 10h1v2h-1v-2z" fill="rgb(61,61,36)"/>
<path d="M11 10h3v2h2v1h-1v1h-2v-1h-1v-1h-1v-2z" fill="rgb(113,2,0)"/>
<path d="M14 10h2v2h-2v-2z" fill="rgb(142,4,0)"/>
<path d="M20 10h2v2h-2v-2z" fill="rgb(157,15,0)"/>
<path d="M7 11h1v1h-1v-1z" fill="rgb(221,224,83)"/>
<path d="M2 12h1v1h1v1h-2v-2z" fill="rgb(131,6,0)"/>
<path d="M3 12h1v1h-1v-1z" fill="rgb(61,61,36)"/>
<path d="M4 12h1v1h-1v-1z" fill="rgb(234,238,87)"/>
<path d="M5 12h2v1h-2v-1z" fill="rgb(221,224,83)"/>
<path d="M7 12h1v1h-1v-1z" fill="rgb(234,238,87)"/>
<path d="M8 12h2v1h-2v-1z" fill="rgb(61,61,36)"/>
<path d="M10 12h1v1h-1v-1z" fill="rgb(234,238,87)"/>
<path d="M11 12h1v1h-1v-1z" fill="rgb(61,61,36)"/>
<path d="M16 12h1v2h-2v-1h1v-1z" fill="rgb(61,61,36)"/>
<path d="M20 12h2v4h-2v-4z" fill="rgb(125,4,0)"/>
<path d="M22 12h1v4h-1v-4z" fill="rgb(154,15,0)"/>
<path d="M4 13h1v1h-1v-1z" fill="rgb(61,61,36)"/>
<path d="M5 13h2v1h-2v-1z" fill="rgb(234,238,87)"/>
<path d="M7 13h1v1h-1v-1z" fill="rgb(61,61,36)"/>
<path d="M8 13h2v1h-2v-1z" fill="rgb(113,2,0)"/>
<path d="M10 13h1v1h-1v-1z" fill="rgb(61,61,36)"/>
<path d="M12 13h1v1h-1v-1z" fill="rgb(61,61,36)"/>
<path d="M18 13h1v2h-1v-2z" fill="rgb(61,61,36)"/>
<path d="M19 13h1v5h-2v-1h-2v-1h2v-1h1v-2z" fill="rgb(121,4,0)"/>
<path d="M1 14h1v1h-1v-1z" fill="rgb(157,15,0)"/>
<path d="M2 14h2v1h-2v-1z" fill="rgb(121,4,0)"/>
<path d="M4 14h1v1h1v1h-2v-2z" fill="rgb(113,2,0)"/>
<path d="M5 14h2v1h-2v-1z" fill="rgb(61,61,36)"/>
<path d="M7 14h2v1h-1v1h-2v-1h1v-1z" fill="rgb(117,3,0)"/>
<path d="M9 14h1v1h-1v-1z" fill="rgb(61,61,36)"/>
<path d="M13 14h2v1h-2v-1z" fill="rgb(61,61,36)"/>
<path d="M1 15h1v1h-1v-1z" fill="rgb(161,16,0)"/>
<path d="M2 15h2v1h-2v-1z" fill="rgb(125,4,0)"/>
<path d="M8 15h1v1h-1v-1z" fill="rgb(61,61,36)"/>
<path d="M9 15h1v1h-1v-1z" fill="rgb(234,238,87)"/>
<path d="M10 15h2v1h-2v-1z" fill="rgb(61,61,36)"/>
<path d="M16 15h2v1h-2v-1z" fill="rgb(61,61,36)"/>
<path d="M1 16h5v1h-1v1h-1v-1h-3v-1z" fill="rgb(117,3,0)"/>
<path d="M6 16h1v1h-1v-1z" fill="rgb(113,2,0)"/>
<path d="M7 16h1v1h-1v-1z" fill="rgb(61,61,36)"/>
<path d="M8 16h1v1h-1v-1z" fill="rgb(234,238,87)"/>
<path d="M9 16h1v1h-1v-1z" fill="rgb(61,61,36)"/>
<path d="M10 16h2v2h-3v-1h1v-1z" fill="rgb(117,3,0)"/>
<path d="M12 16h4v1h-1v1h-1v-1h-2v-1z" fill="rgb(61,61,36)"/>
<path d="M20 16h2v1h-1v1h-1v-2z" fill="rgb(136,8,0)"/>
<path d="M22 16h1v1h-1v-1z" fill="rgb(161,18,0)"/>
<path d="M3 17h1v1h-1v-1z" fill="rgb(123,3,0)"/>
<path d="M5 17h2v1h-1v1h1v-1h1v2h-3v-3z" fill="rgb(61,61,36)"/>
<path d="M7 17h1v1h-1v-1z" fill="rgb(234,238,87)"/>
<path d="M8 17h1v1h-1v-1z" fill="rgb(61,61,36)"/>
<path d="M12 17h2v1h-2v-1z" fill="rgb(207,36,7)"/>
<path d="M15 17h1v1h-1v-1z" fill="rgb(234,238,87)"/>
<path d="M16 17h2v3h-3v-2h1v-1z" fill="rgb(61,61,36)"/>
<path d="M3 18h1v2h2v1h-3v-3z" fill="rgb(161,18,0)"/>
<path d="M4 18h1v2h-1v-2z" fill="rgb(130,4,0)"/>
<path d="M6 18h1v1h-1v-1z" fill="rgb(234,238,87)"/>
<path d="M8 18h2v2h-2v-2z" fill="rgb(154,15,0)"/>
<path d="M10 18h2v4h-2v-4z" fill="rgb(157,15,0)"/>
<path d="M12 18h2v2h-2v-2z" fill="rgb(123,3,0)"/>
<path d="M14 18h1v2h-1v-2z" fill="rgb(117,3,0)"/>
<path d="M16 18h1v1h-1v-1z" fill="rgb(234,238,87)"/>
<path d="M18 18h2v2h-2v-2z" fill="rgb(136,8,0)"/>
<path d="M20 18h1v1h-1v-1z" fill="rgb(152,13,0)"/>
<path d="M20 19h1v1h-1v-1z" fill="rgb(149,12,0)"/>
<path d="M6 20h2v2h-1v-1h-1v-1z" fill="rgb(186,20,0)"/>
<path d="M8 20h2v2h-2v-2z" fill="rgb(181,21,0)"/>
<path d="M12 20h2v1h-2v-1z" fill="rgb(125,4,0)"/>
<path d="M14 20h2v2h-2v-2z" fill="rgb(145,12,0)"/>
<path d="M16 20h2v1h-1v1h-1v-2z" fill="rgb(136,8,0)"/>
<path d="M18 20h2v1h-2v-1z" fill="rgb(152,13,0)"/>
<path d="M20 20h1v1h-1v-1z" fill="rgb(161,18,0)"/>
<path d="M12 21h2v1h-2v-1z" fill="rgb(121,4,0)"/>
<path d="M7 22h1v1h-1v-1z" fill="rgb(207,36,7)"/>
<path d="M8 22h2v1h-2v-1z" fill="rgb(173,19,0)"/>
<path d="M10 22h7v1h-7v-1z" fill="rgb(161,18,0)"/>
</svg>
